#!OML:ASF H:\Terrain\Patient Classification 1\Walking\liu\liu.ASF
:FULLY-SPECIFIED
:DEGREES
97
root 9.406650 16.292801 -23.653000 3.337900 -2.325640 3.815860
lowerback -7.671697 -2.276384 -5.075862
upperback -0.314569 -2.722599 2.389178
thorax 4.302463 -1.467928 5.059824
lowerneck -23.142021 -5.415674 -13.886070
upperneck 21.732040 -6.107090 12.364551
head 11.543840 -2.433057 5.839317
rclavicle -0.000000 0.000000
rhumerus -47.851761 13.029940 -95.812424
rradius 42.111519
rwrist -23.882759
rhand -33.685081 -26.328062
rfingers 7.837522
rthumb -4.310801 -59.266132
lclavicle -0.000000 0.000000
lhumerus -22.619301 -23.472790 96.036491
lradius 38.443790
lwrist 9.578745
lhand -17.112480 -27.853210
lfingers 7.837522
lthumb 11.690470 4.829154
rfemur -36.259079 3.749152 17.572830
rtibia 50.978401
rfoot -22.875490 -11.754930
rtoes -20.490030
lfemur -5.613619 0.516349 -32.249802
ltibia 23.666941
lfoot -20.281912 8.122972
ltoes -0.987483
98
root 9.407920 16.285700 -23.533199 3.264210 -1.841540 3.628410
lowerback -7.591166 -2.354726 -4.760778
upperback -0.365891 -2.856172 2.410441
thorax 4.205751 -1.525326 4.891645
lowerneck -22.723471 -5.450214 -14.034461
upperneck 21.714001 -6.185465 12.467180
head 11.478610 -2.480852 5.890269
rclavicle 0.000000 0.000000
rhumerus -48.287582 13.096601 -95.888657
rradius 42.104919
rwrist -24.147861
rhand -34.135971 -25.763981
rfingers 7.837522
rthumb -4.746203 -58.693691
lclavicle 0.000000 0.000000
lhumerus -22.591030 -23.760880 96.113708
lradius 39.076290
lwrist 9.798239
lhand -16.741449 -27.837482
lfingers 7.837522
lthumb 12.048301 4.826250
rfemur -36.651234 4.055766 17.548191
rtibia 49.469860
rfoot -22.640532 -11.335170
rtoes -20.460880
lfemur -4.631033 0.118373 -32.059059
ltibia 22.892210
lfoot -20.281031 8.197201
ltoes -1.886973
99
root 9.406970 16.282400 -23.406601 3.284300 -1.425490 3.636060
lowerback -7.739545 -2.454683 -4.697836
upperback -0.425003 -2.988953 2.412696
thorax 4.239334 -1.589621 4.839890
lowerneck -22.402710 -5.422043 -14.284270
upperneck 21.867012 -6.153257 12.603470
head 11.481689 -2.480401 5.994747
rclavicle 0.000000 -0.000000
rhumerus -48.470730 13.038630 -95.775024
rradius 41.831131
rwrist -24.292400
rhand -34.139820 -25.275360
rfingers 7.837522
rthumb -4.749888 -58.204853
lclavicle 0.000000 -0.000000
lhumerus -22.630079 -24.104851 96.287842
lradius 39.729031
lwrist 10.405736
lhand -16.339069 -27.568972
lfingers 7.837522
lthumb 12.436380 5.073893
rfemur -37.160969 4.697517 17.178150
rtibia 48.067471
rfoot -22.684311 -11.006270
rtoes -19.103922
lfemur -3.628174 0.167193 -32.032772
ltibia 21.961390
lfoot -20.247150 7.843341
ltoes -1.627956
100
root 9.405940 16.279800 -23.276300 3.415100 -1.101170 3.819660
lowerback -8.025160 -2.584120 -4.903613
upperback -0.466989 -3.132459 2.379278
thorax 4.380266 -1.666467 4.896320
lowerneck -22.415472 -5.364436 -14.398451
upperneck 22.118690 -6.068194 12.661220
head 11.568151 -2.445190 6.058382
rclavicle 0.000000 0.000000
rhumerus -48.361061 12.840630 -95.553047
rradius 41.341961
rwrist -24.104080
rhand -33.590370 -25.185381
rfingers 7.837522
rthumb -4.219336 -58.125099
lclavicle 0.000000 0.000000
lhumerus -22.660551 -24.566742 96.407082
lradius 40.321270
lwrist 11.097900
lhand -16.515181 -27.578981
lfingers 7.837522
lthumb 12.266540 5.073035
rfemur -37.816902 5.452832 16.518259
rtibia 46.740322
rfoot -22.835890 -10.482362
rtoes -17.352390
lfemur -2.660603 0.362486 -32.159050
ltibia 20.800230
lfoot -20.046841 7.235393
ltoes -0.282145
101
root 9.408040 16.275299 -23.146900 3.476500 -0.781887 4.024710
lowerback -8.227483 -2.619507 -5.052322
upperback -0.431261 -3.152567 2.238027
thorax 4.533397 -1.681834 4.822433
lowerneck -22.446159 -5.511198 -14.388881
upperneck 22.267962 -6.270825 12.597751
head 11.654940 -2.544685 6.005483
rclavicle 0.000000 0.000000
rhumerus -48.516491 12.548800 -95.493195
rradius 41.259899
rwrist -23.591480
rhand -33.211639 -26.107071
rfingers 7.837522
rthumb -3.853575 -59.053062
lclavicle 0.000000 0.000000
lhumerus -22.649990 -25.454882 96.480339
lradius 40.956963
lwrist 11.687720
lhand -16.998411 -28.056822
lfingers 7.837522
lthumb 11.800581 4.619835
rfemur -38.379990 5.926943 15.895881
rtibia 45.414600
rfoot -22.925320 -9.935761
rtoes -18.635321
lfemur -1.458039 0.396200 -32.348801
ltibia 19.335140
lfoot -19.671412 6.932882
ltoes -0.826505
102
root 9.410570 16.282101 -23.020300 3.345630 -0.424719 3.998500
lowerback -8.258525 -2.581370 -4.830727
upperback -0.337952 -3.112296 2.091980
thorax 4.624939 -1.659768 4.545915
lowerneck -22.221760 -5.677848 -14.194620
upperneck 22.205481 -6.525387 12.331110
head 11.610940 -2.682328 5.828614
rclavicle -0.000000 -0.000000
rhumerus -48.725380 12.008700 -95.428741
rradius 41.336132
rwrist -23.222870
rhand -32.625122 -26.805901
rfingers 7.837522
rthumb -3.287207 -59.760582
lclavicle -0.000000 -0.000000
lhumerus -22.690580 -26.350830 96.571861
lradius 41.615860
lwrist 12.045990
lhand -17.339960 -28.529049
lfingers 7.837522
lthumb 11.471020 4.164424
rfemur -38.634972 6.222029 15.626270
rtibia 44.058411
rfoot -23.001112 -9.496839
rtoes -18.876881
lfemur 0.126499 0.369361 -32.285442
ltibia 17.634430
lfoot -19.236141 6.736796
ltoes -2.564958
103
root 9.410570 16.294399 -22.897900 3.154540 0.023509 3.901010
lowerback -8.112709 -2.651209 -4.609044
upperback -0.317121 -3.228973 2.072136
thorax 4.564670 -1.712216 4.390518
lowerneck -21.949951 -5.636422 -14.246540
upperneck 22.345732 -6.498789 12.338700
head 11.608850 -2.682240 5.849899
rclavicle -0.000000 0.000000
rhumerus -48.890598 11.720941 -95.296959
rradius 41.151661
rwrist -22.977459
rhand -32.679790 -26.565111
rfingers 7.837522
rthumb -3.340018 -59.519020
lclavicle -0.000000 0.000000
lhumerus -22.865152 -26.635290 96.750397
lradius 42.211510
lwrist 12.308670
lhand -16.952761 -28.393751
lfingers 7.837522
lthumb 11.844470 4.280628
rfemur -38.816471 6.420216 15.433990
rtibia 42.641609
rfoot -22.912670 -9.087011
rtoes -18.185862
lfemur 1.781912 0.279642 -32.098110
ltibia 15.897090
lfoot -18.868961 6.233777
ltoes -2.614711
